<svg width="720" height="540" viewBox="0 0 720 540" fill="none" xmlns="http://www.w3.org/2000/svg">
  <defs>
    <linearGradient id="bg" x1="360" y1="32" x2="360" y2="508" gradientUnits="userSpaceOnUse">
      <stop stop-color="#F9FCFF"/>
      <stop offset="1" stop-color="#EFF5FB"/>
    </linearGradient>
    <linearGradient id="beam" x1="360" y1="30" x2="360" y2="362" gradientUnits="userSpaceOnUse">
      <stop stop-color="#FCEAB0" stop-opacity="0.98"/>
      <stop offset="1" stop-color="#FCEAB0" stop-opacity="0"/>
    </linearGradient>
    <linearGradient id="windowGlow" x1="560" y1="112" x2="560" y2="252" gradientUnits="userSpaceOnUse">
      <stop stop-color="#FFF7D4"/>
      <stop offset="1" stop-color="#E5F3FF"/>
    </linearGradient>
    <filter id="softShadow" x="0" y="0" width="720" height="540" filterUnits="userSpaceOnUse" color-interpolation-filters="sRGB">
      <feDropShadow dx="0" dy="16" stdDeviation="24" flood-color="#24415F" flood-opacity="0.14"/>
    </filter>
  </defs>

  <rect x="24" y="24" width="672" height="492" rx="32" fill="url(#bg)"/>
  <rect x="54" y="64" width="612" height="412" rx="26" fill="#FBFDFF" stroke="#D6E1ED"/>

  <path d="M292 54L430 54L506 330L214 330L292 54Z" fill="url(#beam)" opacity="0.95"/>
  <circle cx="360" cy="64" r="16" fill="#F7D875" opacity="0.86"/>
  <circle cx="360" cy="64" r="27" fill="#FCEAB0" opacity="0.25"/>

  <rect x="454" y="106" width="124" height="132" rx="20" fill="#F8FBFF" stroke="#D6E1ED"/>
  <rect x="470" y="122" width="92" height="100" rx="12" fill="url(#windowGlow)"/>
  <path d="M516 122V222" stroke="#C7D9EA" stroke-width="6" stroke-linecap="round"/>
  <path d="M470 172H562" stroke="#C7D9EA" stroke-width="6" stroke-linecap="round"/>

  <rect x="126" y="372" width="474" height="22" rx="11" fill="#DDE7F1"/>
  <rect x="94" y="392" width="542" height="54" rx="22" fill="#EAF1F8"/>

  <g filter="url(#softShadow)">
    <rect x="192" y="248" width="184" height="122" rx="42" fill="#D8A66D"/>
    <rect x="166" y="220" width="62" height="168" rx="30" fill="#C58C58"/>
    <rect x="340" y="220" width="56" height="154" rx="28" fill="#C58C58"/>
    <rect x="222" y="344" width="28" height="88" rx="14" fill="#865A39"/>
    <rect x="318" y="344" width="28" height="88" rx="14" fill="#865A39"/>
  </g>

  <ellipse cx="284" cy="208" rx="38" ry="46" fill="#203A57"/>
  <ellipse cx="286" cy="216" rx="30" ry="34" fill="#E7C0A4"/>
  <path d="M252 202C258 170 280 152 306 164C326 173 330 198 322 218C302 204 278 198 252 202Z" fill="#17324B"/>
  <rect x="256" y="248" width="72" height="92" rx="34" fill="#4E7AA5"/>
  <rect x="286" y="332" width="26" height="74" rx="13" fill="#2B4764"/>
  <rect x="244" y="332" width="26" height="78" rx="13" fill="#2B4764" transform="rotate(12 244 332)"/>
  <rect x="318" y="330" width="26" height="80" rx="13" fill="#2B4764" transform="rotate(-14 318 330)"/>
  <rect x="248" y="272" width="86" height="22" rx="11" fill="#E7C0A4" transform="rotate(-18 248 272)"/>
  <rect x="276" y="282" width="86" height="22" rx="11" fill="#E7C0A4" transform="rotate(8 276 282)"/>

  <g transform="translate(248 252) rotate(8)">
    <rect x="0" y="0" width="106" height="72" rx="10" fill="#FFFDF6" stroke="#DCC89A"/>
    <path d="M52 10V62" stroke="#DCC89A" stroke-width="3"/>
    <path d="M16 22H40" stroke="#D9C58F" stroke-width="3" stroke-linecap="round"/>
    <path d="M16 31H44" stroke="#D9C58F" stroke-width="3" stroke-linecap="round"/>
    <path d="M64 22H88" stroke="#D9C58F" stroke-width="3" stroke-linecap="round"/>
    <path d="M64 31H92" stroke="#D9C58F" stroke-width="3" stroke-linecap="round"/>
    <path d="M30 48H38" stroke="#A8833F" stroke-width="3" stroke-linecap="round"/>
    <path d="M72 48H80" stroke="#A8833F" stroke-width="3" stroke-linecap="round"/>
  </g>

  <circle cx="188" cy="134" r="9" fill="#B7D7EE"/>
  <circle cx="214" cy="106" r="7" fill="#DCECF7"/>
  <circle cx="528" cy="86" r="8" fill="#FCEAB0" opacity="0.7"/>
</svg>
